<svg xmlns="http://www.w3.org/2000/svg" width="1440" height="1040" viewBox="0 0 1440 1040">
  <defs>
    <linearGradient id="brand" x1="0" y1="0" x2="1" y2="1"><stop stop-color="#3b82f6"/><stop offset="1" stop-color="#6366f1"/></linearGradient>
    <filter id="shadow" x="-20%" y="-20%" width="140%" height="170%"><feDropShadow dx="0" dy="9" stdDeviation="12" flood-color="#315d99" flood-opacity=".11"/></filter>
    <symbol id="resume" viewBox="0 0 196 220"><rect x="1" y="1" width="194" height="218" rx="20" fill="#fff" stroke="#dce7f5"/><rect x="17" y="17" width="162" height="164" rx="11" fill="#f8fafc" stroke="#e2e8f0"/><circle cx="48" cy="47" r="16" fill="#dbeafe"/><rect x="72" y="34" width="75" height="8" rx="4" fill="#334155"/><rect x="72" y="49" width="52" height="5" rx="2.5" fill="#94a3b8"/><rect x="31" y="79" width="48" height="5" rx="2.5" fill="#3b82f6"/><rect x="31" y="92" width="126" height="4" rx="2" fill="#cbd5e1"/><rect x="31" y="103" width="112" height="4" rx="2" fill="#d7e0eb"/><rect x="31" y="123" width="56" height="5" rx="2.5" fill="#64748b"/><rect x="31" y="137" width="129" height="4" rx="2" fill="#cbd5e1"/><rect x="31" y="148" width="101" height="4" rx="2" fill="#d7e0eb"/><text x="18" y="205" fill="#334155" font-size="14" font-weight="700">求职简历</text><circle cx="175" cy="201" r="3" fill="#94a3b8"/><circle cx="183" cy="201" r="3" fill="#94a3b8"/></symbol>
    <symbol id="job" viewBox="0 0 275 104"><rect x="1" y="1" width="273" height="102" rx="18" fill="#fff" stroke="#dce7f5"/><rect x="16" y="16" width="42" height="42" rx="13" fill="#e0e7ff"/><path d="M28 27h18v18H28z" fill="#6366f1" opacity=".85"/><text x="70" y="31" fill="#1e293b" font-size="14" font-weight="700">高级产品经理</text><text x="70" y="51" fill="#64748b" font-size="11">上海 · 互联网 · 25-35K</text><rect x="16" y="72" width="53" height="20" rx="10" fill="#eff6ff"/><text x="28" y="86" fill="#2563eb" font-size="10">沟通中</text><text x="206" y="86" fill="#94a3b8" font-size="10">更新于今天</text></symbol>
  </defs>
  <rect width="1440" height="1040" fill="#edf4ff"/><rect width="1440" height="58" fill="#fff"/><line y1="58" x2="1440" y2="58" stroke="#dfe8f4"/>
  <rect x="26" y="13" width="34" height="34" rx="11" fill="url(#brand)"/><path d="M36 30c5-7 12-7 16 0-4 7-11 7-16 0Zm-5 0 6-5v10Z" fill="#fff"/><text x="72" y="36" fill="#1e293b" font-family="Microsoft YaHei, Noto Sans SC, sans-serif" font-size="17" font-weight="700">小鱼简历</text><circle cx="1384" cy="29" r="16" fill="#e0e7ff"/><text x="1379" y="34" fill="#4f46e5" font-size="14" font-weight="700">林</text>
  <g font-family="Microsoft YaHei, Noto Sans SC, sans-serif">
    <text x="100" y="103" fill="#64748b" font-size="13" font-weight="700">方案 B · 悬浮轮播</text>
    <g filter="url(#shadow)"><rect x="100" y="122" width="1180" height="94" rx="22" fill="#fff"/></g>
    <rect x="124" y="145" width="48" height="48" rx="16" fill="#dbeafe"/><path d="M140 169h16m-8-8v16" stroke="#2563eb" stroke-width="2.5" stroke-linecap="round"/><text x="188" y="163" fill="#1e293b" font-size="14" font-weight="700">新建简历</text><text x="188" y="185" fill="#94a3b8" font-size="12">从空白模板开始编辑</text>
    <line x1="390" y1="144" x2="390" y2="194" stroke="#e2e8f0"/><rect x="418" y="145" width="48" height="48" rx="16" fill="#ede9fe"/><path d="M432 174l10-12 10 12m-10-12v21" fill="none" stroke="#7c3aed" stroke-width="2.5" stroke-linecap="round"/><text x="482" y="163" fill="#1e293b" font-size="14" font-weight="700">上传简历</text><text x="482" y="185" fill="#94a3b8" font-size="12">支持 PDF、DOCX、TXT</text>
    <line x1="684" y1="144" x2="684" y2="194" stroke="#e2e8f0"/><rect x="712" y="145" width="48" height="48" rx="16" fill="#e0f2fe"/><circle cx="736" cy="169" r="9" fill="none" stroke="#0284c7" stroke-width="2"/><path d="M742 175l7 7" stroke="#0284c7" stroke-width="2"/><text x="776" y="163" fill="#1e293b" font-size="14" font-weight="700">JD 智能分析</text><text x="776" y="185" fill="#94a3b8" font-size="12">匹配岗位并优化简历</text>
    <text x="100" y="263" fill="#0f172a" font-size="22" font-weight="800">我的简历</text><text x="206" y="263" fill="#64748b" font-size="14">共 12 份</text><rect x="1102" y="238" width="76" height="34" rx="11" fill="#fff" stroke="#d9e5f3"/><text x="1125" y="260" fill="#475569" font-size="13">上传</text><rect x="1188" y="238" width="92" height="34" rx="11" fill="#2563eb"/><text x="1210" y="260" fill="#fff" font-size="13">＋ 新建</text>
    <g filter="url(#shadow)"><use href="#resume" x="100" y="288" width="196" height="220"/><use href="#resume" x="316" y="288" width="196" height="220"/><use href="#resume" x="532" y="288" width="196" height="220"/><use href="#resume" x="748" y="288" width="196" height="220"/><use href="#resume" x="964" y="288" width="196" height="220"/></g>
    <circle cx="1195" cy="541" r="4" fill="#2563eb"/><circle cx="1210" cy="541" r="4" fill="#cbd5e1"/><circle cx="1225" cy="541" r="4" fill="#cbd5e1"/><circle cx="1260" cy="541" r="24" fill="#fff" stroke="#d8e5f5" filter="url(#shadow)"/><path d="M1255 533l8 8-8 8" fill="none" stroke="#2563eb" stroke-width="2.5" stroke-linecap="round" stroke-linejoin="round"/>
    <text x="100" y="620" fill="#0f172a" font-size="22" font-weight="800">岗位</text><text x="158" y="620" fill="#64748b" font-size="14">共 14 个</text><rect x="1175" y="594" width="105" height="34" rx="11" fill="#2563eb"/><text x="1194" y="616" fill="#fff" font-size="13">＋ 新建岗位</text>
    <g filter="url(#shadow)"><use href="#job" x="100" y="646" width="275" height="104"/><use href="#job" x="402" y="646" width="275" height="104"/><use href="#job" x="704" y="646" width="275" height="104"/><use href="#job" x="1006" y="646" width="275" height="104"/><use href="#job" x="100" y="770" width="275" height="104"/><use href="#job" x="402" y="770" width="275" height="104"/><use href="#job" x="704" y="770" width="275" height="104"/><use href="#job" x="1006" y="770" width="275" height="104"/></g>
    <circle cx="1195" cy="911" r="4" fill="#2563eb"/><circle cx="1210" cy="911" r="4" fill="#cbd5e1"/><circle cx="1225" cy="911" r="4" fill="#cbd5e1"/><circle cx="1260" cy="911" r="24" fill="#fff" stroke="#d8e5f5" filter="url(#shadow)"/><path d="M1255 903l8 8-8 8" fill="none" stroke="#2563eb" stroke-width="2.5" stroke-linecap="round" stroke-linejoin="round"/>
    <text x="100" y="992" fill="#64748b" font-size="13">特点：翻页动作感最强，适合强调“还有更多内容”。</text>
  </g>
</svg>
